<svg width="48" height="48" viewBox="0 0 48 48" fill="none" xmlns="http://www.w3.org/2000/svg">
<path d="M10 10C10 7.79086 11.7909 6 14 6H32C34.2091 6 36 7.79086 36 10V39.7658C36 40.6298 34.9782 41.0872 34.3338 40.5116L23 30.3872L11.6662 40.5116C11.0218 41.0872 10 40.6298 10 39.7658V10Z" fill="#00489F"/>
<path d="M17.5798 12.9679H28.4131M23 30.3872L34.3338 40.5116C34.9782 41.0872 36 40.6298 36 39.7658V10C36 7.79086 34.2091 6 32 6H14C11.7909 6 10 7.79086 10 10V39.7658C10 40.6298 11.0218 41.0872 11.6662 40.5116L23 30.3872Z" stroke="#00489F" stroke-width="4" stroke-linecap="round" stroke-linejoin="round"/>
</svg>
