<svg width="36" height="36" viewBox="0 0 36 36" fill="none" xmlns="http://www.w3.org/2000/svg">
<path d="M21.9706 11.7V8.55002C21.9706 7.71459 21.6359 6.91338 21.0402 6.32264C20.4445 5.7319 19.6366 5.40002 18.7941 5.40002H7.67647C6.83402 5.40002 6.02607 5.7319 5.43037 6.32264C4.83466 6.91338 4.5 7.71459 4.5 8.55002V27.45C4.5 28.2855 4.83466 29.0867 5.43037 29.6774C6.02607 30.2681 6.83402 30.6 7.67647 30.6H18.7941C19.6366 30.6 20.4445 30.2681 21.0402 29.6774C21.6359 29.0867 21.9706 28.2855 21.9706 27.45V24.3M12.4412 18H31.5M26.7353 22.725L31.5 18L26.7353 13.275" stroke="white" stroke-width="2.67" stroke-linecap="round" stroke-linejoin="round"/>
</svg>
