<svg width="402" height="442" viewBox="0 0 402 442" fill="none" xmlns="http://www.w3.org/2000/svg">
<path d="M0 260.195C0 245.708 0 238.464 0.476005 232.353C6.50455 154.957 67.9879 93.4738 145.384 87.4452C151.495 86.9692 158.739 86.9692 173.226 86.9692H194C212.425 86.9692 221.638 86.9692 229.398 87.7389C304.148 95.153 363.281 154.286 370.695 229.036C371.465 236.796 371.465 246.009 371.465 264.435C371.465 282.86 371.465 292.073 370.695 299.833C363.281 374.584 304.148 433.716 229.398 441.13C221.638 441.9 212.425 441.9 194 441.9H181.705C166.509 441.9 158.911 441.9 152.501 441.401C71.316 435.077 6.82296 370.584 0.499306 289.4C0 282.989 0 275.391 0 260.195Z" fill="#00489F"/>
<path d="M85.7204 220.165C85.7204 230.21 78.6909 236.878 61.9616 236.878C45.2324 236.878 37.4771 230.205 37.4771 220.16C37.4771 210.116 45.2324 201.605 61.9616 201.605C78.6909 201.605 85.7204 210.12 85.7204 220.165Z" fill="#FFC5C5"/>
<path d="M304.226 220.165C304.226 230.21 296.645 236.878 278.604 236.878C260.563 236.878 252.199 230.205 252.199 220.16C252.199 210.116 260.563 201.605 278.604 201.605C296.645 201.605 304.226 210.12 304.226 220.165Z" fill="#FFC5C5"/>
<path d="M250.187 57.2942C284.736 56.1434 300.762 62.8218 321.248 92.2582L307.377 140.477L220.448 97.7058L250.187 57.2942Z" fill="#00489F"/>
<path d="M302.875 36.3199C304.716 36.1968 305.637 36.1352 306.47 36.359C307.207 36.5569 307.891 36.9148 308.474 37.4071C309.134 37.9638 309.608 38.7549 310.557 40.3373L338.986 87.7296C341.299 91.5851 342.455 93.5128 342.335 95.1532C342.23 96.5853 341.537 97.9102 340.421 98.8132C339.142 99.8476 336.899 99.9976 332.413 100.298L274.073 104.2C272.232 104.323 271.312 104.385 270.478 104.161C269.741 103.963 269.057 103.605 268.474 103.113C267.815 102.556 267.34 101.765 266.391 100.183L237.963 52.7906C235.65 48.9351 234.494 47.0074 234.614 45.367C234.718 43.9349 235.411 42.61 236.528 41.707C237.807 40.6726 240.049 40.5226 244.535 40.2225L302.875 36.3199Z" fill="#00489F"/>
<path d="M328.125 90.9877C325.087 90.7934 322.782 88.1736 322.976 85.136C323.171 82.0984 325.791 79.7941 328.828 79.9884C344.387 80.9837 361.759 77.1508 374.941 63.7366C377.074 61.5659 380.563 61.5353 382.734 63.6683C384.905 65.8017 384.936 69.2916 382.803 71.4626C366.751 87.7969 345.865 92.1225 328.125 90.9877Z" fill="#00489F"/>
<path d="M374.476 77.045C370.946 78.3621 367.497 74.9311 368.796 71.3943L375.777 52.3824C376.868 49.4108 380.642 48.5232 382.943 50.6969L395.394 62.4583C397.768 64.6999 396.967 68.6533 393.908 69.7944L374.476 77.045Z" fill="#00489F"/>
<circle cx="101.129" cy="185.371" r="16.2544" fill="#FFFBEC"/>
<circle cx="233.961" cy="185.371" r="16.2544" fill="#FFFBEC"/>
<path d="M147.704 219.333H188.326C188.326 242.499 188.326 265.163 168.015 265.163C147.704 265.163 147.704 242.499 147.704 219.333Z" fill="#FFFBEC"/>
<path d="M229.662 136.035C231.877 134.424 234.979 134.914 236.591 137.129C238.201 139.345 237.711 142.447 235.496 144.058L223.371 152.876C221.155 154.487 218.053 153.997 216.442 151.782C214.831 149.566 215.321 146.464 217.537 144.853L229.662 136.035Z" fill="#FFFBEC"/>
<path d="M106.53 136.035C104.315 134.424 101.213 134.914 99.6014 137.129C97.9904 139.345 98.4807 142.447 100.696 144.058L112.821 152.876C115.037 154.487 118.139 153.997 119.75 151.782C121.361 149.566 120.871 146.464 118.655 144.853L106.53 136.035Z" fill="#FFFBEC"/>
</svg>
