<svg viewBox="0 0 367 175" fill="none" xmlns="http://www.w3.org/2000/svg">
<path d="M0 69.5505C0 65.6772 0 63.7406 0.127268 62.1067C1.73908 41.414 18.1774 24.9757 38.8701 23.3639C40.5039 23.2366 42.4406 23.2366 46.3139 23.2366H51.868C56.7944 23.2366 59.2576 23.2366 61.3322 23.4424C81.3176 25.4247 97.1274 41.2345 99.1097 61.2199C99.3155 63.2946 99.3155 65.7577 99.3155 70.6841V70.6841C99.3155 75.6104 99.3155 78.0736 99.1097 80.1483C97.1274 100.134 81.3176 115.944 61.3322 117.926C59.2576 118.132 56.7944 118.132 51.868 118.132H48.581C44.5181 118.132 42.4866 118.132 40.7728 117.998C19.0672 116.307 1.82421 99.0644 0.133497 77.3587C0 75.6449 0 73.6134 0 69.5505V69.5505Z" fill="#00489F"/>
<path d="M10.7691 148.39C10.7691 146.363 11.7122 144.76 13.2446 143.887C15.0129 142.921 17.0876 142.685 19.7753 142.685C22.4866 142.685 24.5377 142.921 26.3059 143.887C27.8384 144.76 28.7815 146.363 28.7815 148.39C28.7815 150.394 27.8384 152.021 26.3059 152.87C24.5377 153.86 22.4866 154.096 19.7753 154.096C17.0876 154.096 15.0129 153.86 13.2446 152.87C11.7122 152.021 10.7691 150.394 10.7691 148.39ZM13.9991 148.39C13.9991 149.286 14.3527 150.088 15.0364 150.512C15.9795 151.102 17.4884 151.267 19.7753 151.267C22.0622 151.267 23.5947 151.102 24.5141 150.512C25.1979 150.088 25.5515 149.286 25.5515 148.39C25.5515 147.471 25.1979 146.693 24.5141 146.268C23.5947 145.655 22.0622 145.514 19.7753 145.514C17.4884 145.514 15.9795 145.655 15.0364 146.268C14.3527 146.693 13.9991 147.471 13.9991 148.39ZM10.1326 156.218H29.3709V159.023H21.3313V164.658H18.1014V159.023H10.1326V156.218ZM175.729 162.866H166.299V143.038H176.932V145.844H169.505V160.061H176.366C178.111 160.061 179.384 159.778 180.067 159.188V142.661H183.297V151.243H186.551V154.025H183.297V164.304H180.067V161.805C179.36 162.513 177.78 162.866 175.729 162.866Z" fill="#FFC5C5"/>
<path d="M52.9228 160.061H60.1843C61.9289 160.061 63.2256 159.778 63.9093 159.188V142.661H67.1393V164.304H63.9093V161.805C63.2021 162.513 61.5989 162.866 59.5713 162.866H49.7164V151.432H56.9072V145.844H49.7164V143.038H60.1135V154.237H52.9228V160.061ZM92.1529 142.025H95.3829V144.076H99.8388V146.716H87.5084V144.076H92.1529V142.025ZM88.1449 151.738C88.1449 150.394 88.7815 149.31 89.7717 148.579C90.7619 147.872 92.1293 147.494 93.709 147.494C95.3121 147.494 96.6796 147.872 97.6462 148.579C98.66 149.31 99.2966 150.394 99.2966 151.738C99.2966 153.082 98.66 154.166 97.6462 154.897C96.6796 155.605 95.3121 155.982 93.709 155.982C92.1293 155.982 90.7619 155.605 89.7717 154.897C88.7815 154.166 88.1449 153.082 88.1449 151.738ZM91.257 151.738C91.257 152.186 91.4456 152.563 91.7993 152.846C92.2472 153.223 92.9309 153.436 93.709 153.436C94.5106 153.436 95.1707 153.223 95.6422 152.846C95.9959 152.563 96.1845 152.186 96.1845 151.738C96.1845 151.29 95.9959 150.913 95.6422 150.63C95.1707 150.253 94.5106 150.041 93.709 150.041C92.9309 150.041 92.2472 150.253 91.7993 150.63C91.4456 150.913 91.257 151.29 91.257 151.738ZM105.497 147.942H108.491V150.748H105.497V155.982H102.267V142.661H105.497V147.942ZM105.497 156.996V164.658H102.267V159.778H89.1587V156.996H105.497ZM141.757 145.868H127.799V143.038H144.987V150.677C144.987 153.106 144.774 155.699 144.397 157.561H141.191C141.521 155.817 141.757 153.388 141.757 151.361V145.868ZM133.859 151.102V160.556H136.098V151.102H139.328V160.556H146.071V163.361H126.833V160.556H130.629V151.102H133.859ZM204.68 147.848C204.68 146.033 205.482 144.571 206.731 143.651C207.722 142.944 208.971 142.543 210.409 142.543C211.847 142.543 213.121 142.944 214.111 143.651C215.36 144.571 216.138 146.033 216.138 147.848C216.138 149.663 215.36 151.125 214.111 152.068C213.121 152.775 211.847 153.176 210.409 153.176C208.971 153.176 207.722 152.775 206.731 152.068C205.482 151.125 204.68 149.663 204.68 147.848ZM207.839 147.848C207.839 148.72 208.169 149.428 208.712 149.899C209.136 150.276 209.702 150.512 210.409 150.512C211.117 150.512 211.706 150.276 212.13 149.899C212.673 149.428 213.003 148.72 213.003 147.848C213.003 146.999 212.673 146.292 212.13 145.82C211.706 145.443 211.117 145.207 210.409 145.207C209.702 145.207 209.136 145.443 208.712 145.82C208.169 146.292 207.839 146.999 207.839 147.848ZM222.197 146.551H225.192V149.38H222.197V153.247H218.967V142.661H222.197V146.551ZM209.325 161.9H222.457V164.54H206.095V158.08H218.967V156.76H206.095V154.166H222.197V160.65H209.325V161.9ZM252.469 162.866H244.217V151.432H250.653V145.844H244.217V143.038H253.86V154.237H247.423V160.061H252.657C254.072 160.061 255.298 160.013 256.288 159.754V162.418C255.298 162.748 253.954 162.866 252.469 162.866ZM254.873 150.206V147.376H258.41V142.661H261.64V164.304H258.41V156.901H254.873V154.096H258.41V150.206H254.873ZM286.748 145.868V152.705H300.799V155.534H283.518V143.038H300.587V145.868H286.748ZM282.433 160.556H301.672V163.361H282.433V160.556ZM325.106 152.21H332.626C334.442 152.21 335.503 151.974 336.234 151.432V142.661H339.464V155.534H336.234V153.931C335.503 154.567 334.182 154.897 331.73 154.897H321.899V147.518H329.585V145.585H321.899V142.921H332.791V150.206H325.106V152.21ZM323.149 156.524H339.464V164.54H323.149V156.524ZM326.379 159.306V161.782H336.234V159.306H326.379Z" fill="#00489F"/>
<path d="M351.833 86.8682C355.232 89.6629 356.129 94.5908 353.45 98.0821C343.245 111.379 328.944 118.132 298.04 118.132H260.211L276.862 74.2676C286.171 74.2676 290.829 74.0919 298.04 74.0919C312.542 74.0919 323.181 63.3165 323.181 63.3165L351.833 86.8682Z" fill="#00489F"/>
<path d="M289.618 24.7102H285.05V33.846H289.618V29.2781V24.7102ZM361.75 33.846C364.273 33.846 366.318 31.8009 366.318 29.2781C366.318 26.7553 364.273 24.7102 361.75 24.7102V29.2781V33.846ZM289.547 36.0563H284.979V45.1921H289.547V40.6242V36.0563ZM336.405 45.1921C338.928 45.1921 340.973 43.147 340.973 40.6242C340.973 38.1014 338.928 36.0563 336.405 36.0563V40.6242V45.1921ZM289.547 47.4024H284.979V56.5383H289.547V51.9703V47.4024ZM308.261 56.5383C310.784 56.5383 312.829 54.4931 312.829 51.9703C312.829 49.4475 310.784 47.4024 308.261 47.4024V51.9703V56.5383ZM289.618 29.2781V33.846H361.75V29.2781V24.7102H289.618V29.2781ZM289.547 40.6242V45.1921H336.405V40.6242V36.0563H289.547V40.6242ZM289.547 51.9703V56.5383H308.261V51.9703V47.4024H289.547V51.9703Z" fill="#00489F"/>
<path d="M22.9184 58.848C22.9184 61.5336 21.039 63.3164 16.5663 63.3164C12.0935 63.3164 10.02 61.5323 10.02 58.8467C10.02 56.1612 12.0935 53.8859 16.5663 53.8859C21.039 53.8859 22.9184 56.1624 22.9184 58.848Z" fill="#FFC5C5"/>
<path d="M81.3383 58.848C81.3383 61.5336 79.3115 63.3164 74.4879 63.3164C69.6643 63.3164 67.4282 61.5323 67.4282 58.8467C67.4282 56.1612 69.6643 53.8859 74.4879 53.8859C79.3115 53.8859 81.3383 56.1624 81.3383 58.848Z" fill="#FFC5C5"/>
<path d="M66.89 15.3025C76.1271 14.9948 80.4118 16.7804 85.889 24.6505L82.1806 37.5425L58.9391 26.107L66.89 15.3025Z" fill="#00489F"/>
<path d="M80.9768 9.69491C81.4691 9.66199 81.7152 9.64552 81.938 9.70536C82.135 9.75827 82.318 9.85395 82.4738 9.98558C82.6501 10.1344 82.7769 10.3459 83.0307 10.769L90.6314 23.4399C91.2497 24.4707 91.5589 24.9861 91.5268 25.4247C91.4988 25.8076 91.3136 26.1618 91.0151 26.4032C90.6732 26.6798 90.0735 26.7199 88.8741 26.8001L73.2763 27.8435C72.784 27.8764 72.5379 27.8929 72.3151 27.8331C72.1181 27.7801 71.9352 27.6845 71.7793 27.5528C71.6031 27.404 71.4762 27.1925 71.2224 26.7694L63.6217 14.0985C63.0034 13.0677 62.6942 12.5523 62.7263 12.1138C62.7543 11.7309 62.9395 11.3766 63.238 11.1352C63.5799 10.8587 64.1796 10.8185 65.379 10.7383L80.9768 9.69491Z" fill="#00489F"/>
<path d="M87.8215 22.8404C92.2729 23.1252 97.3872 22.0346 101.295 18.0578" stroke="#00489F" stroke-width="2.94705" stroke-linecap="round"/>
<path d="M282.917 24.7101C287.042 24.7101 289.105 24.7101 290.681 25.5129C292.067 26.2192 293.195 27.3463 293.902 28.7326C294.511 29.9284 294.657 31.4048 294.692 33.8498C294.122 33.8938 293.673 34.37 293.673 34.9514C293.673 35.5365 294.128 36.0136 294.704 36.0519C294.704 36.198 294.705 36.3467 294.705 36.4982V45.1955C294.129 45.2333 293.673 45.7115 293.673 46.2971C293.673 46.8827 294.129 47.3608 294.705 47.3986V56.5383H239.398C237.228 56.5384 235.469 58.2979 235.469 60.468C235.469 68.0632 241.626 74.2206 249.221 74.2209H294.705V106.343C294.705 110.469 294.705 112.533 293.902 114.109C293.195 115.495 292.067 116.622 290.681 117.328C289.105 118.131 287.042 118.131 282.917 118.131H266.413C243.306 118.131 231.752 118.132 222.926 113.635C215.163 109.679 208.852 103.367 204.896 95.6037C200.399 86.778 200.399 75.2243 200.399 52.1174V40.7424C200.399 35.1307 200.399 32.3242 201.491 30.1808C202.451 28.2956 203.984 26.7626 205.87 25.8019C208.013 24.7098 210.819 24.7101 216.431 24.7101H282.917Z" fill="#00489F"/>
<path d="M184.485 24.7101C188.611 24.7101 190.674 24.7101 192.25 25.5129C193.636 26.2192 194.763 27.3465 195.47 28.7326C196.273 30.3086 196.273 32.372 196.273 36.4982V56.5383H141.707C139.537 56.5384 137.778 58.2979 137.778 60.468C137.778 68.0633 143.936 74.2209 151.531 74.2209H196.273V106.343C196.273 110.469 196.273 112.533 195.47 114.109C194.763 115.495 193.636 116.622 192.25 117.328C190.674 118.131 188.611 118.131 184.485 118.131H169.16C146.053 118.131 134.5 118.132 125.674 113.635C117.911 109.679 111.599 103.367 107.644 95.6037C103.147 86.778 103.146 75.2243 103.146 52.1174V40.7424C103.146 35.1307 103.146 32.3242 104.238 30.1808C105.199 28.2956 106.732 26.7626 108.617 25.8019C110.761 24.7098 113.567 24.7101 119.179 24.7101H184.485Z" fill="#00489F"/>
<path d="M100.12 20.5832C99.1766 20.9354 98.2545 20.0181 98.6017 19.0725L100.468 13.9894C100.76 13.1949 101.769 12.9576 102.384 13.5388L105.713 16.6833C106.348 17.2826 106.134 18.3396 105.316 18.6447L100.12 20.5832Z" fill="#00489F"/>
<circle cx="27.0382" cy="49.5456" r="4.3458" fill="#FFFBEC"/>
<circle cx="62.5523" cy="49.5454" r="4.3458" fill="#FFFBEC"/>
<path d="M39.4907 58.6255H50.3515C50.3515 64.8193 50.3515 70.8787 44.9211 70.8787C39.4907 70.8787 39.4907 64.8193 39.4907 58.6255Z" fill="#FFFBEC"/>
<path d="M58.9409 39.7851L62.1827 37.4275" stroke="#FFFBEC" stroke-width="2.65234" stroke-linecap="round"/>
<path d="M30.9438 39.7851L27.7021 37.4275" stroke="#FFFBEC" stroke-width="2.65234" stroke-linecap="round"/>
</svg>
